<svg width="226" height="70" viewBox="0 0 226 70" fill="none" xmlns="http://www.w3.org/2000/svg">
<path d="M56.4439 50.779C56.031 51.5742 55.5166 52.0379 54.9079 52.4611C51.6045 54.7673 47.97 56.2696 43.912 56.5781C32.9107 57.4157 23.4845 53.8769 15.4769 46.468C14.571 45.6305 13.6775 44.7788 12.8125 43.9008C11.1394 42.2028 9.09971 42.5572 7.56904 43.4917C5.823 44.5584 5.14131 46.4627 5.82478 48.4145C6.60613 50.6467 8.18665 52.3623 9.7814 54.0321C13.9213 58.366 19.0384 61.2524 24.5186 63.5745C25.6239 64.0435 26.7292 64.5143 27.8559 64.9216C28.4272 65.1279 28.461 65.4364 28.13 65.8049C27.1671 66.8752 26.8022 68.1094 26.9428 69.5182C26.9855 69.9502 26.7915 70.0525 26.3501 69.9767C24.6841 69.6875 23.1446 69.0563 21.6317 68.3528C10.7657 63.3083 3.93457 54.9384 0.850072 43.5411C-0.143088 39.4452 -0.111051 35.4674 0.171947 31.3856C0.469183 27.094 1.64567 22.9981 3.59461 19.2125C4.91883 16.6365 4.91349 17.2624 6.66665 18.4825C8.09053 19.4717 9.12107 19.3659 10.5823 18.3909C11.5203 17.7649 12.2714 16.9397 13.0528 16.1463C16.1088 13.0378 19.6578 10.6398 23.7106 8.98421C24.4439 8.68446 25.2181 8.50814 25.9995 8.34946C26.4658 8.25424 26.7488 8.35827 26.9428 8.74618C29.9241 14.7111 35.4327 17.5198 41.2617 19.8843C44.6435 21.256 48.2068 21.9507 51.8519 22.2258C53.5784 22.3563 55.2016 22.0054 56.9316 21.688C57.3534 21.6104 57.9212 21.4465 58.1063 21.912C58.3057 22.4109 58.2291 23.0034 57.7521 23.4389C56.8159 24.294 55.6377 24.5691 54.4434 24.696C47.4272 25.4383 40.9218 23.8039 34.8062 20.4573C33.5995 19.7979 32.4372 19.0573 31.2554 18.3503C29.2619 17.1566 26.9695 17.4793 25.5082 19.1578C24.0648 20.8188 24.0416 23.215 25.4815 24.9323C27.2311 27.0199 29.5467 28.3635 31.9139 29.6242C36.8513 32.2549 42.0947 33.907 47.6781 34.5523C51.8644 35.0372 56.0061 35.0777 60.1265 34.0533C61.723 33.6566 61.8672 33.8682 61.5414 35.4974C61.1428 37.4863 59.7918 38.6747 58.1063 39.5704C56.2517 40.556 54.2209 40.9985 52.1456 40.9703C41.5465 40.8275 31.9673 37.6767 23.5023 31.3151C22.4469 30.5216 21.3932 29.73 20.2879 29.0053C18.5152 27.8416 16.6481 28.5116 15.2135 29.7123C13.7202 30.9624 13.3785 32.5934 14.1509 34.3619C14.6155 35.4233 15.3435 36.2979 16.1746 37.0931C22.5163 43.1585 30.0415 47.1609 38.4763 49.573C42.1179 50.615 45.8378 51.1828 49.6235 51.2727C51.7202 51.3221 53.7777 50.9888 55.8726 50.8301C56.0381 50.8178 56.2143 50.7913 56.4439 50.779Z" fill="#EE2425"/>
<path d="M8.31738 14.2291C8.84187 13.2759 9.31514 12.8089 9.78134 12.1752C10.6572 10.9849 13.9472 7.90403 14.7207 7.4002C16.9899 5.92206 19.2379 4.40004 21.7297 3.28529C24.8554 1.88615 28.0782 0.864447 31.4829 0.351839C33.6851 0.0200484 35.8907 -0.085282 38.0893 0.0709581C41.9496 0.344817 45.6811 1.24013 49.2218 2.82535C51.129 3.67852 52.9532 4.67038 54.7121 5.80444C55.8829 6.55931 56.6458 7.22465 57.5782 7.96196C59.0068 9.09426 59.971 10.116 61.1383 11.2904C61.6752 11.8293 62.1025 12.4262 62.5369 12.9985C63.231 13.9166 63.8826 14.7961 64.4848 15.7353C66.6975 19.1814 68.255 22.8943 69.1151 26.9074C69.5406 28.8946 69.8073 30.9012 69.9521 32.9112C70.0969 34.9072 69.8938 36.912 69.6501 38.9133C69.3287 41.5553 68.7513 44.1201 67.8683 46.6252C67.0913 48.8266 66.0264 50.8841 64.8327 52.8941C63.9638 54.3582 62.8601 55.6187 61.8147 56.9406C60.801 58.2221 59.5737 59.2736 58.4347 60.42C55.4838 63.3833 51.8883 65.3407 48.0245 66.8487C45.342 67.8949 42.7461 68.62 39.91 69.0465C37.6019 69.3941 35.7071 69.3257 33.2983 69.2274C32.7597 69.2133 32.2653 69.1519 31.4988 68.9149C31.5483 68.3917 31.8979 67.8651 32.6749 67.8844C34.6775 67.9283 37.3723 68.153 39.3378 67.8616C40.2491 67.7264 41.0967 67.3718 41.8048 66.7521C43.0675 65.6514 42.543 63.4974 40.6817 62.8461C39.4279 62.4072 38.1034 62.3177 36.809 62.179C33.8581 61.8613 30.9938 61.2293 28.2283 60.1953C24.79 58.9103 21.5001 57.2689 18.4415 55.2746C16.914 54.2792 13.2126 51.0983 12.6528 50.5611C11.7751 49.7202 9.53764 47.4134 10.0197 47.0817C10.3358 46.864 11.7009 48.3772 12.6881 49.2339C15.9427 52.062 19.1708 54.7497 23.1053 56.5473C26.8738 58.2695 30.7766 59.5159 34.9089 60.0601C36.9185 60.3252 38.9317 60.5762 40.9466 60.5253C46.3168 60.3901 51.2685 59.0314 55.95 56.1998C58.0691 54.9182 60.3066 52.4114 61.1454 51.3247C61.8871 50.3662 63.1056 48.8688 63.2204 47.6504C63.434 45.3911 62.5934 44.638 59.9604 45.3261C58.191 45.7878 56.5628 46.2408 54.7227 46.4813C52.5188 46.7692 50.0535 46.878 47.7914 46.6884C44.0299 46.3742 40.4045 45.593 36.8673 44.3624C32.9911 43.0141 29.3179 41.2481 25.8196 39.0906C24.3044 38.1549 22.8457 37.1402 21.4206 36.0975C20.3611 35.3215 17.8729 33.2237 18.3355 32.7409C18.7717 32.2863 22.2471 35.2531 24.2002 36.4556C28.5621 39.1415 32.984 41.3885 37.9198 42.7947C40.5475 43.5443 43.207 44.164 45.9089 44.4607C49.0505 44.8048 52.1267 44.8276 55.2825 44.2676C57.4299 43.8866 59.6002 43.4074 61.3061 42.0434C63.4482 40.33 64.9969 38.2006 65.3783 35.3759C65.5302 34.2559 65.5479 33.1412 65.539 32.0229C65.5231 29.8285 64.4971 28.0291 61.5357 28.9192C59.9392 29.3984 58.3375 29.8988 56.7023 30.2007C56.0118 30.3271 55.256 30.3692 54.5425 30.4553C52.8367 30.6589 51.3268 30.5817 49.446 30.457C47.8108 30.3482 46.1685 29.9971 44.5438 29.667C40.6464 28.8771 37.005 27.3866 33.5226 25.5135C32.1999 24.8025 31.0803 24.2021 29.6905 23.1717C29.2384 22.8364 28.442 22.1482 28.7087 21.8673C29.0354 21.5197 30.1126 22.2904 30.6724 22.631C32.8286 23.9388 34.6846 25.0114 36.7225 25.8593C39.3131 26.9372 41.7377 27.5938 44.4873 28.0818C47.2139 28.5663 49.9794 28.6699 52.7642 28.6137C54.5814 28.5769 56.3244 28.3539 58.025 27.7693C59.9004 27.1251 61.5321 26.0402 61.9153 24.0336C62.2314 22.3782 62.0601 20.6192 61.3008 19.0199C60.9741 18.3335 60.6368 17.554 59.8615 17.1397C58.8461 16.5973 57.9261 16.7676 56.9389 17.0169C55.1536 17.468 53.3417 17.7559 51.4928 17.7419C49.3436 17.7243 46.859 17.131 44.814 16.6184C42.7602 16.1022 38.8239 14.589 35.3927 12.1594C32.9045 10.3968 31.1086 8.36221 30.2468 5.41296C29.8848 4.17358 29.2561 3.77859 27.9687 3.72768C26.0809 3.65044 24.3079 4.19464 22.5967 4.84945C19.8754 5.89046 17.3519 7.14916 14.982 8.86253C13.4421 9.97728 11.9093 11.3062 10.7915 12.349C10.1575 12.9388 9.00433 14.1607 8.31738 14.2291ZM40.5687 2.6814C38.7922 2.67964 37.3264 2.97457 36.3039 3.53808C35.4386 4.01558 35.0607 4.91264 35.2673 5.83428C35.5623 7.1474 36.4046 8.12346 37.3123 9.01702C38.0646 9.75784 38.9334 10.4109 39.8323 10.9762C42.9139 12.9178 46.3062 13.9746 49.9458 14.1291C50.9665 14.1729 52.0384 14.0149 53.0221 13.7288C54.9116 13.1811 56.1125 11.5888 54.7209 9.49978C53.8856 8.24635 52.8578 7.22113 51.7082 6.40833C48.4006 4.06649 44.6621 2.79901 40.5687 2.6814Z" fill="#074367"/>
<path d="M87.5625 24.75L95.375 32.5156C96.6562 33.7969 97.75 34.6719 98.6562 35.1406C99.5625 35.599 100.469 35.8594 101.375 35.9219V36.5H91.2969V35.9219C91.901 35.9219 92.3333 35.8229 92.5938 35.625C92.8646 35.4167 93 35.1875 93 34.9375C93 34.6875 92.9479 34.4635 92.8438 34.2656C92.75 34.0677 92.4271 33.6979 91.875 33.1562L84.5625 25.9219V32.75C84.5625 33.8229 84.6302 34.5312 84.7656 34.875C84.8698 35.1354 85.0885 35.3594 85.4219 35.5469C85.8698 35.7969 86.3438 35.9219 86.8438 35.9219H87.5625V36.5H78.5312V35.9219H79.2812C80.1562 35.9219 80.7917 35.6667 81.1875 35.1562C81.4375 34.8229 81.5625 34.0208 81.5625 32.75V19.0625C81.5625 17.9896 81.4948 17.276 81.3594 16.9219C81.2552 16.6719 81.0417 16.4531 80.7188 16.2656C80.2604 16.0156 79.7812 15.8906 79.2812 15.8906H78.5312V15.3125H87.5625V15.8906H86.8438C86.3542 15.8906 85.8802 16.0104 85.4219 16.25C85.099 16.4167 84.875 16.6667 84.75 17C84.625 17.3333 84.5625 18.0208 84.5625 19.0625V25.5469C84.7708 25.349 85.4844 24.6875 86.7031 23.5625C89.7969 20.7292 91.6667 18.8385 92.3125 17.8906C92.5938 17.474 92.7344 17.1094 92.7344 16.7969C92.7344 16.5573 92.625 16.349 92.4062 16.1719C92.1875 15.9844 91.8177 15.8906 91.2969 15.8906H90.8125V15.3125H98.5938V15.8906C98.1354 15.901 97.7188 15.9635 97.3438 16.0781C96.9688 16.1927 96.5104 16.4167 95.9688 16.75C95.4271 17.0729 94.7604 17.599 93.9688 18.3281C93.7396 18.5365 92.6823 19.6042 90.7969 21.5312L87.5625 24.75ZM115.766 29.4062H107.562L106.125 32.75C105.771 33.5729 105.594 34.1875 105.594 34.5938C105.594 34.9167 105.745 35.2031 106.047 35.4531C106.359 35.6927 107.026 35.849 108.047 35.9219V36.5H101.375V35.9219C102.26 35.7656 102.833 35.5625 103.094 35.3125C103.625 34.8125 104.214 33.7969 104.859 32.2656L112.312 14.8281H112.859L120.234 32.4531C120.828 33.8698 121.365 34.7917 121.844 35.2188C122.333 35.6354 123.01 35.8698 123.875 35.9219V36.5H115.516V35.9219C116.359 35.8802 116.927 35.7396 117.219 35.5C117.521 35.2604 117.672 34.9688 117.672 34.625C117.672 34.1667 117.464 33.4427 117.047 32.4531L115.766 29.4062ZM115.328 28.25L111.734 19.6875L108.047 28.25H115.328ZM145.875 36.5H140.219L133.047 26.5938C132.516 26.6146 132.083 26.625 131.75 26.625C131.615 26.625 131.469 26.625 131.312 26.625C131.156 26.6146 130.995 26.6042 130.828 26.5938V32.75C130.828 34.0833 130.974 34.9115 131.266 35.2344C131.661 35.6927 132.255 35.9219 133.047 35.9219H133.875V36.5H124.797V35.9219H125.594C126.49 35.9219 127.13 35.6302 127.516 35.0469C127.734 34.724 127.844 33.9583 127.844 32.75V19.0625C127.844 17.7292 127.698 16.901 127.406 16.5781C127 16.1198 126.396 15.8906 125.594 15.8906H124.797V15.3125H132.516C134.766 15.3125 136.422 15.4792 137.484 15.8125C138.557 16.1354 139.464 16.7396 140.203 17.625C140.953 18.5 141.328 19.5469 141.328 20.7656C141.328 22.0677 140.901 23.1979 140.047 24.1562C139.203 25.1146 137.891 25.7917 136.109 26.1875L140.484 32.2656C141.484 33.6615 142.344 34.5885 143.062 35.0469C143.781 35.5052 144.719 35.7969 145.875 35.9219V36.5ZM130.828 25.6094C131.026 25.6094 131.198 25.6146 131.344 25.625C131.49 25.625 131.609 25.625 131.703 25.625C133.724 25.625 135.245 25.1875 136.266 24.3125C137.297 23.4375 137.812 22.3229 137.812 20.9688C137.812 19.6458 137.396 18.5729 136.562 17.75C135.74 16.9167 134.646 16.5 133.281 16.5C132.677 16.5 131.859 16.599 130.828 16.7969V25.6094ZM160.859 15.8906V15.3125H168.359V15.8906H167.562C166.729 15.8906 166.089 16.2396 165.641 16.9375C165.422 17.2604 165.312 18.0104 165.312 19.1875V27.7812C165.312 29.9062 165.099 31.5573 164.672 32.7344C164.255 33.901 163.427 34.9062 162.188 35.75C160.958 36.5833 159.281 37 157.156 37C154.844 37 153.089 36.599 151.891 35.7969C150.693 34.9948 149.844 33.9167 149.344 32.5625C149.01 31.6354 148.844 29.8958 148.844 27.3438V19.0625C148.844 17.7604 148.661 16.9062 148.297 16.5C147.943 16.0938 147.365 15.8906 146.562 15.8906H145.766V15.3125H154.922V15.8906H154.109C153.234 15.8906 152.609 16.1667 152.234 16.7188C151.974 17.0938 151.844 17.875 151.844 19.0625V28.2969C151.844 29.1198 151.917 30.0625 152.062 31.125C152.219 32.1875 152.495 33.0156 152.891 33.6094C153.286 34.2031 153.854 34.6927 154.594 35.0781C155.344 35.4635 156.26 35.6562 157.344 35.6562C158.729 35.6562 159.969 35.3542 161.062 34.75C162.156 34.1458 162.901 33.375 163.297 32.4375C163.703 31.4896 163.906 29.8906 163.906 27.6406V19.0625C163.906 17.7396 163.76 16.9115 163.469 16.5781C163.062 16.1198 162.458 15.8906 161.656 15.8906H160.859ZM168.297 15.3125H174.047L187 31.2031V18.9844C187 17.6823 186.854 16.8698 186.562 16.5469C186.177 16.1094 185.568 15.8906 184.734 15.8906H184V15.3125H191.375V15.8906H190.625C189.729 15.8906 189.094 16.1615 188.719 16.7031C188.49 17.0365 188.375 17.7969 188.375 18.9844V36.8438H187.812L173.844 19.7812V32.8281C173.844 34.1302 173.984 34.9427 174.266 35.2656C174.661 35.7031 175.271 35.9219 176.094 35.9219H176.844V36.5H169.469V35.9219H170.203C171.109 35.9219 171.75 35.651 172.125 35.1094C172.354 34.776 172.469 34.0156 172.469 32.8281V18.0938C171.854 17.375 171.385 16.901 171.062 16.6719C170.75 16.4427 170.286 16.2292 169.672 16.0312C169.37 15.9375 168.911 15.8906 168.297 15.8906V15.3125ZM201.719 35.9219V36.5H192.641V35.9219H193.391C194.266 35.9219 194.901 35.6667 195.297 35.1562C195.547 34.8229 195.672 34.0208 195.672 32.75V19.0625C195.672 17.9896 195.604 17.2812 195.469 16.9375C195.365 16.6771 195.151 16.4531 194.828 16.2656C194.37 16.0156 193.891 15.8906 193.391 15.8906H192.641V15.3125H201.719V15.8906H200.953C200.089 15.8906 199.458 16.1458 199.062 16.6562C198.802 16.9896 198.672 17.7917 198.672 19.0625V32.75C198.672 33.8229 198.74 34.5312 198.875 34.875C198.979 35.1354 199.198 35.3594 199.531 35.5469C199.979 35.7969 200.453 35.9219 200.953 35.9219H201.719ZM217.141 29.4062H208.938L207.5 32.75C207.146 33.5729 206.969 34.1875 206.969 34.5938C206.969 34.9167 207.12 35.2031 207.422 35.4531C207.734 35.6927 208.401 35.849 209.422 35.9219V36.5H202.75V35.9219C203.635 35.7656 204.208 35.5625 204.469 35.3125C205 34.8125 205.589 33.7969 206.234 32.2656L213.688 14.8281H214.234L221.609 32.4531C222.203 33.8698 222.74 34.7917 223.219 35.2188C223.708 35.6354 224.385 35.8698 225.25 35.9219V36.5H216.891V35.9219C217.734 35.8802 218.302 35.7396 218.594 35.5C218.896 35.2604 219.047 34.9688 219.047 34.625C219.047 34.1667 218.839 33.4427 218.422 32.4531L217.141 29.4062ZM216.703 28.25L213.109 19.6875L209.422 28.25H216.703Z" fill="#054366"/>
<path d="M84.5469 58.5L80.4531 49.5859V56.6641C80.4531 57.3151 80.5234 57.7214 80.6641 57.8828C80.8568 58.1016 81.1615 58.2109 81.5781 58.2109H81.9531V58.5H78.2656V58.2109H78.6406C79.0885 58.2109 79.4062 58.0755 79.5938 57.8047C79.7083 57.638 79.7656 57.2578 79.7656 56.6641V49.7422C79.7656 49.2734 79.7135 48.9349 79.6094 48.7266C79.5365 48.5755 79.401 48.4505 79.2031 48.3516C79.0104 48.2474 78.6979 48.1953 78.2656 48.1953V47.9062H81.2656L85.1094 56.1953L88.8906 47.9062H91.8906V48.1953H91.5234C91.0703 48.1953 90.75 48.3307 90.5625 48.6016C90.4479 48.7682 90.3906 49.1484 90.3906 49.7422V56.6641C90.3906 57.3151 90.4635 57.7214 90.6094 57.8828C90.8021 58.1016 91.1068 58.2109 91.5234 58.2109H91.8906V58.5H87.3906V58.2109H87.7656C88.2188 58.2109 88.5365 58.0755 88.7188 57.8047C88.8333 57.638 88.8906 57.2578 88.8906 56.6641V49.5859L84.8047 58.5H84.5469ZM99.8672 48.1953V47.9062H103.617V48.1953H103.219C102.802 48.1953 102.482 48.3698 102.258 48.7188C102.148 48.8802 102.094 49.2552 102.094 49.8438V54.1406C102.094 55.2031 101.987 56.0286 101.773 56.6172C101.565 57.2005 101.151 57.7031 100.531 58.125C99.9167 58.5417 99.0781 58.75 98.0156 58.75C96.8594 58.75 95.9818 58.5495 95.3828 58.1484C94.7839 57.7474 94.3594 57.2083 94.1094 56.5312C93.9427 56.0677 93.8594 55.1979 93.8594 53.9219V49.7812C93.8594 49.1302 93.7682 48.7031 93.5859 48.5C93.4089 48.2969 93.1198 48.1953 92.7188 48.1953H92.3203V47.9062H96.8984V48.1953H96.4922C96.0547 48.1953 95.7422 48.3333 95.5547 48.6094C95.4245 48.7969 95.3594 49.1875 95.3594 49.7812V54.3984C95.3594 54.8099 95.3958 55.2812 95.4688 55.8125C95.5469 56.3438 95.6849 56.7578 95.8828 57.0547C96.0807 57.3516 96.3646 57.5964 96.7344 57.7891C97.1094 57.9818 97.5677 58.0781 98.1094 58.0781C98.8021 58.0781 99.4219 57.9271 99.9688 57.625C100.516 57.3229 100.888 56.9375 101.086 56.4688C101.289 55.9948 101.391 55.1953 101.391 54.0703V49.7812C101.391 49.1198 101.318 48.7057 101.172 48.5391C100.969 48.3099 100.667 48.1953 100.266 48.1953H99.8672ZM112.969 55.5703L113.227 55.625L112.32 58.5H104.117V58.2109H104.516C104.964 58.2109 105.284 58.0651 105.477 57.7734C105.586 57.6068 105.641 57.2214 105.641 56.6172V49.7812C105.641 49.1198 105.568 48.7057 105.422 48.5391C105.219 48.3099 104.917 48.1953 104.516 48.1953H104.117V47.9062H108.914V48.1953C108.352 48.1901 107.956 48.2422 107.727 48.3516C107.503 48.4609 107.349 48.599 107.266 48.7656C107.182 48.9323 107.141 49.3307 107.141 49.9609V56.6172C107.141 57.0495 107.182 57.3464 107.266 57.5078C107.328 57.6172 107.424 57.6979 107.555 57.75C107.685 57.8021 108.091 57.8281 108.773 57.8281H109.547C110.359 57.8281 110.93 57.7682 111.258 57.6484C111.586 57.5286 111.885 57.3177 112.156 57.0156C112.427 56.7083 112.698 56.2266 112.969 55.5703ZM121.367 47.9062L121.484 50.3906H121.188C121.13 49.9531 121.052 49.6406 120.953 49.4531C120.792 49.151 120.576 48.9297 120.305 48.7891C120.039 48.6432 119.688 48.5703 119.25 48.5703H117.758V56.6641C117.758 57.3151 117.828 57.7214 117.969 57.8828C118.167 58.1016 118.471 58.2109 118.883 58.2109H119.25V58.5H114.758V58.2109H115.133C115.581 58.2109 115.898 58.0755 116.086 57.8047C116.201 57.638 116.258 57.2578 116.258 56.6641V48.5703H114.984C114.49 48.5703 114.138 48.6068 113.93 48.6797C113.659 48.7786 113.427 48.9688 113.234 49.25C113.042 49.5312 112.927 49.9115 112.891 50.3906H112.594L112.719 47.9062H121.367ZM126.828 58.2109V58.5H122.289V58.2109H122.664C123.102 58.2109 123.419 58.0833 123.617 57.8281C123.742 57.6615 123.805 57.2604 123.805 56.625V49.7812C123.805 49.2448 123.771 48.8906 123.703 48.7188C123.651 48.5885 123.544 48.4766 123.383 48.3828C123.154 48.2578 122.914 48.1953 122.664 48.1953H122.289V47.9062H126.828V48.1953H126.445C126.013 48.1953 125.698 48.3229 125.5 48.5781C125.37 48.7448 125.305 49.1458 125.305 49.7812V56.625C125.305 57.1615 125.339 57.5156 125.406 57.6875C125.458 57.8177 125.568 57.9297 125.734 58.0234C125.958 58.1484 126.195 58.2109 126.445 58.2109H126.828ZM130.492 48.4844V52.6484H132.422C132.865 52.6484 133.188 52.5521 133.391 52.3594C133.599 52.1615 133.737 51.7734 133.805 51.1953H134.094V54.7812H133.805C133.799 54.3698 133.745 54.0677 133.641 53.875C133.542 53.6823 133.401 53.5391 133.219 53.4453C133.042 53.3464 132.776 53.2969 132.422 53.2969H130.492V56.625C130.492 57.1615 130.526 57.5156 130.594 57.6875C130.646 57.8177 130.755 57.9297 130.922 58.0234C131.151 58.1484 131.391 58.2109 131.641 58.2109H132.023V58.5H127.477V58.2109H127.852C128.289 58.2109 128.607 58.0833 128.805 57.8281C128.93 57.6615 128.992 57.2604 128.992 56.625V49.7812C128.992 49.2448 128.958 48.8906 128.891 48.7188C128.839 48.5885 128.732 48.4766 128.57 48.3828C128.346 48.2578 128.107 48.1953 127.852 48.1953H127.477V47.9062H135.359L135.461 50.2344H135.188C135.052 49.7396 134.893 49.3776 134.711 49.1484C134.534 48.9141 134.312 48.7448 134.047 48.6406C133.786 48.5365 133.38 48.4844 132.828 48.4844H130.492ZM141.062 58.2109V58.5H136.523V58.2109H136.898C137.336 58.2109 137.654 58.0833 137.852 57.8281C137.977 57.6615 138.039 57.2604 138.039 56.625V49.7812C138.039 49.2448 138.005 48.8906 137.938 48.7188C137.885 48.5885 137.779 48.4766 137.617 48.3828C137.388 48.2578 137.148 48.1953 136.898 48.1953H136.523V47.9062H141.062V48.1953H140.68C140.247 48.1953 139.932 48.3229 139.734 48.5781C139.604 48.7448 139.539 49.1458 139.539 49.7812V56.625C139.539 57.1615 139.573 57.5156 139.641 57.6875C139.693 57.8177 139.802 57.9297 139.969 58.0234C140.193 58.1484 140.43 58.2109 140.68 58.2109H141.062ZM141.242 47.9062H144.117L150.594 55.8516V49.7422C150.594 49.0911 150.521 48.6849 150.375 48.5234C150.182 48.3047 149.878 48.1953 149.461 48.1953H149.094V47.9062H152.781V48.1953H152.406C151.958 48.1953 151.641 48.3307 151.453 48.6016C151.339 48.7682 151.281 49.1484 151.281 49.7422V58.6719H151L144.016 50.1406V56.6641C144.016 57.3151 144.086 57.7214 144.227 57.8828C144.424 58.1016 144.729 58.2109 145.141 58.2109H145.516V58.5H141.828V58.2109H142.195C142.648 58.2109 142.969 58.0755 143.156 57.8047C143.271 57.638 143.328 57.2578 143.328 56.6641V49.2969C143.021 48.9375 142.786 48.7005 142.625 48.5859C142.469 48.4714 142.237 48.3646 141.93 48.2656C141.779 48.2188 141.549 48.1953 141.242 48.1953V47.9062ZM160.336 54.9531H156.234L155.516 56.625C155.339 57.0365 155.25 57.3438 155.25 57.5469C155.25 57.7083 155.326 57.8516 155.477 57.9766C155.633 58.0964 155.966 58.1745 156.477 58.2109V58.5H153.141V58.2109C153.583 58.1328 153.87 58.0312 154 57.9062C154.266 57.6562 154.56 57.1484 154.883 56.3828L158.609 47.6641H158.883L162.57 56.4766C162.867 57.1849 163.135 57.6458 163.375 57.8594C163.62 58.0677 163.958 58.1849 164.391 58.2109V58.5H160.211V58.2109C160.633 58.1901 160.917 58.1198 161.062 58C161.214 57.8802 161.289 57.7344 161.289 57.5625C161.289 57.3333 161.185 56.9714 160.977 56.4766L160.336 54.9531ZM160.117 54.375L158.32 50.0938L156.477 54.375H160.117ZM164.367 47.9062H167.242L173.719 55.8516V49.7422C173.719 49.0911 173.646 48.6849 173.5 48.5234C173.307 48.3047 173.003 48.1953 172.586 48.1953H172.219V47.9062H175.906V48.1953H175.531C175.083 48.1953 174.766 48.3307 174.578 48.6016C174.464 48.7682 174.406 49.1484 174.406 49.7422V58.6719H174.125L167.141 50.1406V56.6641C167.141 57.3151 167.211 57.7214 167.352 57.8828C167.549 58.1016 167.854 58.2109 168.266 58.2109H168.641V58.5H164.953V58.2109H165.32C165.773 58.2109 166.094 58.0755 166.281 57.8047C166.396 57.638 166.453 57.2578 166.453 56.6641V49.2969C166.146 48.9375 165.911 48.7005 165.75 48.5859C165.594 48.4714 165.362 48.3646 165.055 48.2656C164.904 48.2188 164.674 48.1953 164.367 48.1953V47.9062ZM185.773 47.6641L186.016 51.2656H185.773C185.451 50.1875 184.99 49.4115 184.391 48.9375C183.792 48.4635 183.073 48.2266 182.234 48.2266C181.531 48.2266 180.896 48.4062 180.328 48.7656C179.76 49.1198 179.312 49.6875 178.984 50.4688C178.661 51.25 178.5 52.2214 178.5 53.3828C178.5 54.3411 178.654 55.1719 178.961 55.875C179.268 56.5781 179.729 57.1172 180.344 57.4922C180.964 57.8672 181.669 58.0547 182.461 58.0547C183.148 58.0547 183.755 57.9089 184.281 57.6172C184.807 57.3203 185.385 56.7344 186.016 55.8594L186.258 56.0156C185.727 56.9583 185.107 57.6484 184.398 58.0859C183.69 58.5234 182.849 58.7422 181.875 58.7422C180.12 58.7422 178.76 58.0911 177.797 56.7891C177.078 55.8203 176.719 54.6797 176.719 53.3672C176.719 52.3099 176.956 51.3385 177.43 50.4531C177.904 49.5677 178.555 48.8828 179.383 48.3984C180.216 47.9089 181.125 47.6641 182.109 47.6641C182.875 47.6641 183.63 47.8516 184.375 48.2266C184.594 48.3411 184.75 48.3984 184.844 48.3984C184.984 48.3984 185.107 48.349 185.211 48.25C185.346 48.1094 185.443 47.9141 185.5 47.6641H185.773ZM190.156 48.4844V52.6719H192.484C193.089 52.6719 193.492 52.5807 193.695 52.3984C193.966 52.1589 194.117 51.737 194.148 51.1328H194.438V54.8203H194.148C194.076 54.3047 194.003 53.974 193.93 53.8281C193.836 53.6458 193.682 53.5026 193.469 53.3984C193.255 53.2943 192.927 53.2422 192.484 53.2422H190.156V56.7344C190.156 57.2031 190.177 57.4896 190.219 57.5938C190.26 57.6927 190.333 57.7734 190.438 57.8359C190.542 57.8932 190.74 57.9219 191.031 57.9219H192.828C193.427 57.9219 193.862 57.8802 194.133 57.7969C194.404 57.7135 194.664 57.5495 194.914 57.3047C195.237 56.9818 195.568 56.4948 195.906 55.8438H196.219L195.305 58.5H187.141V58.2109H187.516C187.766 58.2109 188.003 58.151 188.227 58.0312C188.393 57.9479 188.505 57.8229 188.562 57.6562C188.625 57.4896 188.656 57.1484 188.656 56.6328V49.75C188.656 49.0781 188.589 48.6641 188.453 48.5078C188.266 48.2995 187.953 48.1953 187.516 48.1953H187.141V47.9062H195.305L195.422 50.2266H195.117C195.008 49.6693 194.885 49.2865 194.75 49.0781C194.62 48.8698 194.424 48.7109 194.164 48.6016C193.956 48.5234 193.589 48.4844 193.062 48.4844H190.156Z" fill="#054366"/>
</svg>
